<?xml version="1.0" encoding="UTF-8"?><svg id="Ebene_1" xmlns="http://www.w3.org/2000/svg" width="100.5611" height="100.5611" xmlns:xlink="http://www.w3.org/1999/xlink" viewBox="0 0 100.5611 100.5611"><defs><clipPath id="clippath"><rect x="12.9364" y="2.4191" width="74.6883" height="74.6883" fill="none"/></clipPath><clipPath id="clippath-1"><rect x="12.9364" y="2.4191" width="74.6883" height="74.6883" fill="none"/></clipPath><clipPath id="clippath-2"><rect x="12.9364" y="2.4191" width="74.6883" height="74.6883" fill="none"/></clipPath></defs><g><path d="m22.0663,70.0839c-15.5493-15.5488-15.5493-40.8501,0-56.3999,7.5107-7.4971,17.5312-11.6265,28.2144-11.6265s20.7036,4.1294,28.2153,11.6274c15.5479,15.5488,15.5479,40.8501-.001,56.3989l-28.2144,28.2139-28.2144-28.2139Z" fill="#fff" fill-rule="evenodd"/><path d="m50.2806,3.5574c10.2829,0,19.9269,3.9738,27.1534,11.1875,7.2143,7.2143,11.1875,16.8525,11.1875,27.139s-3.9731,19.9247-11.1875,27.1391l-27.1534,27.1534-27.1535-27.1534c-7.2143-7.2143-11.1875-16.8525-11.1875-27.1391s3.9731-19.9247,11.1856-27.1371c7.2285-7.2156,16.8724-11.1894,27.1553-11.1894m0-3c-10.6081,0-21.2163,4.022-29.2747,12.0661-16.0882,16.0882-16.0882,42.4325,0,58.5207l29.2748,29.2747,29.2747-29.2747c16.0882-16.0882,16.0882-42.4326,0-58.5207C71.4969,4.5795,60.8887.5574,50.2806.5574h0Z"/></g><g clip-path="url(#clippath)"><g clip-path="url(#clippath-1)"><path d="m50.1588,12.7854c14.9342,0,27.0402,12.1068,27.0402,27.041s-12.106,27.0402-27.0402,27.0402-27.0402-12.106-27.0402-27.0402,12.106-27.041,27.0402-27.041m0-1.1269c-15.5318,0-28.1693,12.6353-28.1693,28.1679s12.6374,28.1679,28.1693,28.1679,28.1666-12.6367,28.1666-28.1679-12.6348-28.1679-28.1666-28.1679"/><path d="m50.0622,25.5742h.1918v-1.8033h-.1918v1.8033Zm0,30.3079h.1918v-1.802h-.1918v1.802Zm14.3503-15.9576h1.8012v-.1944h-1.8012v.1944Zm-28.5062-.1947h-1.8041v.1945h1.8041v-.1945Zm24.4001-9.9128l1.2739-1.2734-.1367-.1381-1.2726,1.2734.1354.1381Zm-20.2937,20.021l-1.2753,1.2739.1378.136,1.2739-1.2734-.1365-.1365Zm20.1583.1365l1.2726,1.2734.1367-.136-1.2739-1.2739-.1354.1365Zm-20.0218-20.2956l-1.2739-1.2734-.1378.1381,1.2753,1.2734.1365-.1381Zm4.6447-3.0585l-.6901-1.6639-.1768.073.6874,1.666.1794-.0751Zm10.7314,26.4121l.6872,1.6639.1794-.0717-.6901-1.666-.1765.0738Zm7.8384-18.5711l1.666-.6895-.0732-.1779-1.6673.6893.0746.1781Zm-26.4094,10.7293l-1.6647.6909.0732.1807,1.6631-.6901-.0717-.1815Zm18.7476-18.4952l.6901-1.666-.1794-.073-.6872,1.6639.1765.0751Zm-11.0874,26.2632l-.6874,1.666.1768.0717.6901-1.6639-.1794-.0738Zm18.6746-7.5865l1.6673.6901.0732-.1807-1.666-.6909-.0746.1815Zm-26.2632-11.089l-1.6631-.6893-.0732.1779,1.6647.6895.0717-.1781Zm9.9059-10.1842l.352,1.7661.1892-.0366-.352-1.7688-.1892.0393Zm5.9131,29.7264l.3518,1.7688.1892-.0393-.352-1.7661-.1889.0366Zm11.3124-16.6843l1.7696-.3515-.04-.1889-1.7667.3504.0372.19Zm-27.9983,5.3732l-1.7667.3499.04.1897,1.7653-.3512-.0387-.1884Zm22.0011-14.4863l.9991-1.4968-.1599-.1064-1.002,1.4963.1628.107Zm-16.0011,23.5978l-1.0007,1.4968.1599.1078,1.0023-1.4968-.1615-.1078Zm19.7981-3.801l1.4976,1.0026.1075-.1613-1.4974-1.0015-.1078.1602Zm-23.5968-15.9979l-1.4974-1.0012-.1078.1607,1.499,1.002.1062-.1615Zm3.9602-3.9059l-1.0023-1.4963-.1599.1064,1.0007,1.4968.1615-.107Zm15.6767,23.8126l1.002,1.4968.1599-.1078-.9991-1.4968-.1628.1078Zm4.0677-19.7452l1.4974-1.002-.1075-.1607-1.4976,1.0012.1078.1615Zm-23.8107,15.6762l-1.499,1.0015.1078.1613,1.4974-1.0026-.1062-.1602Zm14.5906-21.8362l.1889.0366.352-1.7661-.1892-.0393-.3518,1.7688Zm-5.9131,29.7264l.1892.0393.352-1.7688-.1892-.0379-.352,1.7674Zm17.1883-12.8522l1.7667.3512.0387-.1897-1.7682-.3499-.0372.1884Zm-27.9224-5.7516l-1.7653-.3512-.04.1897,1.7667.3515.0387-.19Zm12.291-13.093l.1768,1.793.1931-.0187-.1765-1.7935-.1934.0192Zm2.9718,30.1638l.1765,1.7922.1905-.0184-.1739-1.793-.1931.0192Zm12.8928-15.496l1.7943-.176-.0192-.1926-1.7946.1763.0195.1923Zm-28.3887,2.6003l-1.793.1794.0179.1926,1.7956-.1781-.0206-.1939Zm23.3122-12.2557l1.1427-1.3933-.1505-.1223-1.1427,1.3925.1505.123Zm-18.2344,21.9139l-1.143,1.392.1504.1223,1.1417-1.392-.1491-.1223Zm20.0727-1.8412l1.3941,1.1422.1215-.1475-1.3912-1.143-.1244.1483Zm-21.9139-18.2328l-1.3915-1.1443-.1215.1497,1.3915,1.143.1215-.1483Zm4.3243-3.4998l-.8503-1.5885-.1699.0898.8489,1.5907.1713-.092Zm13.2669,25.2322l.8503,1.588.1681-.0891-.8487-1.5914-.1697.0925Zm5.9819-19.2501l1.5901-.8495-.0925-.1705-1.5875.8495.0898.1705Zm-25.2322,13.2682l-1.5872.8495.0898.1692,1.5899-.8495-.0925-.1692Zm17.3691-21.9721l-.185-.0545-.522,1.7253.185.0553.522-1.7261Zm-9.5059,30.6752l.1865.0553.5201-1.724-.1834-.0566-.5233,1.7253Zm18.3656-11.109l1.7213.5254.0593-.1858-1.724-.5209-.0566.1813Zm-27.2239-8.4568l-1.724-.5264-.0564.1871,1.7237.5225.0566-.1831Zm8.8583-11.1095l.5233,1.7261.1834-.0553-.5201-1.7253-.1865.0545Zm8.799,29.0066l.522,1.724.185-.0553-.522-1.7253-.185.0566Zm9.6232-17.7148l1.724-.5217-.0553-.1871-1.7253.5251.0566.1836Zm-27.3372,8.0932l-1.7237.5209.0564.1858,1.724-.5254-.0566-.1813Zm20.4719-16.5712l.8487-1.5907-.1681-.0898-.8503,1.5885.1697.092Zm-13.6079,25.0478l-.8489,1.5914.1699.0891.8503-1.588-.1713-.0925Zm19.3302-5.7202l1.5901.8495.0898-.1692-1.5901-.8495-.0898.1692Zm-25.0499-13.6079l-1.5899-.8495-.0898.1705,1.5901.8495.0896-.1705Zm3.557-4.2748l-1.143-1.3925-.1491.1223,1.143,1.3933.1491-.123Zm17.9348,22.1592l1.1427,1.392.1505-.1223-1.1456-1.392-.1476.1223Zm2.1131-20.0479l1.3912-1.143-.1215-.1497-1.3941,1.1443.1244.1483Zm-22.1597,17.9361l-1.3915,1.143.1215.1475,1.3915-1.1422-.1215-.1483Zm12.3808-23.1625l.1931.0187.1765-1.793-.1931-.0192-.1765,1.7935Zm-2.9718,30.1633l.1934.0184.1765-1.7922-.1931-.0192-.1768,1.793Zm15.8451-14.4747l1.7917.1773.0221-.1926-1.7943-.1765-.0195.1918Zm-28.3487-2.9874l-1.7956-.1763-.0179.1926,1.793.176.0206-.1923Zm13.2904-14.539l.0883,1.8014.1918-.0111-.0883-1.7993-.1918.009Zm1.4879,30.2729l.0883,1.8006.1921-.009-.0898-1.802-.1905.0103Zm13.6368-14.8444l1.7999-.0877-.0097-.1926-1.7999.0891.0098.1913Zm-28.4812,1.2075l-1.7999.0883.0095.1926,1.7985-.0896-.0082-.1913Zm23.8821-11.1005l1.212-1.3353-.1449-.1291-1.2091,1.3361.142.1283Zm-19.2859,20.9941l-1.2107,1.334.1452.1286,1.2075-1.3335-.142-.1291Zm20.1404-.8537l1.3348,1.2099.1296-.1423-1.3348-1.2118-.1296.1441Zm-20.9936-19.2888l-1.3345-1.2083-.1299.1423,1.3335,1.2104.131-.1444Zm4.49-3.2822l-.7702-1.6294-.1752.083.7702,1.6294.1752-.083Zm12.0135,25.854l.7717,1.6286.1739-.0814-.7702-1.6294-.1755.0822Zm6.9193-18.9334l1.6286-.771-.0814-.1752-1.6286.7702.0814.176Zm-25.8535,12.0135l-1.6286.7702.0843.1747,1.6273-.7696-.083-.1752Zm17.8175-19.3945l.6102-1.6971-.185-.0653-.606,1.6968.1807.0656Zm-9.7815,26.776l-.6089,1.6958.181.0661.6086-1.6984-.1807-.0635Zm18.2813-8.4947l1.695.606.0661-.1807-1.6989-.6081-.0622.1829Zm-26.7781-9.7879l-1.6963-.606-.0664.1823,1.6979.6079.0648-.1842Zm9.394-10.6576l.4374,1.7487.1879-.0469-.4376-1.7458-.1876.044Zm7.3636,29.4005l.4374,1.7487.1879-.0453-.4376-1.7495-.1876.0461Zm10.48-17.2176l1.7501-.4384-.0482-.1876-1.7487.439.0469.1871Zm-27.6987,6.7388l-1.7474.4355.0443.1884,1.7487-.4369-.0456-.1871Zm21.2599-15.5463l.9261-1.5459-.1642-.0972-.9277,1.5451.1657.098Zm-14.8225,24.3538l-.9232,1.5443.1642.0988.9261-1.5451-.167-.098Zm19.5897-4.7675l1.5445.9282.0993-.1676-1.5459-.9248-.098.1642Zm-24.3543-14.8196l-1.5459-.9261-.098.1649,1.5445.9254.0993-.1642Zm3.7625-4.098l-1.0724-1.4452-.1573.1125,1.0766,1.4494.1531-.1167Zm16.8279,23.0147l1.074,1.4465.1544-.1146-1.0737-1.4492-.1547.1173Zm3.0904-19.9196l1.4492-1.0745-.1144-.1539-1.4494,1.0737.1146.1547Zm-23.0113,16.8266l-1.4452,1.0737.1133.1533,1.4492-1.0732-.1172-.1539Zm13.5027-22.5276l.1921.0298.2635-1.7848-.1918-.0269-.2637,1.7819Zm-4.4484,29.9815l.1918.0277.2651-1.7833-.1905-.0285-.2664,1.784Zm16.5367-13.6803l1.7833.2637.029-.1918-1.7833-.2616-.029.1897Zm-28.1695-4.3746l-1.7817-.2643-.029.1905,1.7833.2651.0274-.1913Zm11.6328-13.6808l.2664,1.784.1905-.0298-.2651-1.7819-.1918.0277Zm4.4484,29.9802l.2637,1.7833.1918-.0277-.2635-1.784-.1921.0285Zm12.1173-16.108l1.7833-.2643-.029-.1913-1.7833.2643.029.1913Zm-28.2259,3.9936l-1.7833.2622.029.1913,1.7817-.2637-.0274-.1897Zm22.6814-13.3889l1.0737-1.4494-.1544-.1125-1.074,1.4452.1547.1167Zm-17.1356,22.7808l-1.0766,1.4492.1573.1146,1.0724-1.447-.1531-.1167Zm19.9567-2.8219l1.4494,1.0732.1144-.1533-1.4492-1.0737-.1146.1539Zm-22.7794-17.1351l-1.4492-1.0737-.1133.1539,1.4452,1.0745.1172-.1547Zm4.1449-3.7072l-.9261-1.5451-.167.0972.9261,1.5459.167-.098Zm14.4897,24.5498l.9277,1.5477.1642-.1014-.9261-1.5443-.1657.098Zm5.0309-19.5209l1.5459-.9254-.0993-.1649-1.5472.9261.1006.1642Zm-24.5516,14.4913l-1.5432.9248.0967.1676,1.5459-.9282-.0993-.1642Zm15.6451-21.0958l.1876.0469.4376-1.7487-.1863-.044-.439,1.7458Zm-7.3636,29.4021l.1876.0453.4376-1.7487-.1879-.0461-.4374,1.7495Zm17.7967-11.9938l1.7487.4363.0469-.1892-1.7487-.4355-.0469.1884Zm-27.6062-7.1143l-1.7487-.439-.0443.1876,1.7474.4384.0456-.1871Zm9.0931-9.8972l-.6086-1.6968-.181.0653.6089,1.6971.1807-.0656Zm9.4201,26.9051l.606,1.6984.185-.0661-.6102-1.6958-.1807.0635Zm8.7426-18.1619l1.6989-.6079-.0661-.1823-1.6979.606.0651.1842Zm-26.9051,9.4208l-1.6979.6081.0664.1807,1.6963-.606-.0648-.1829Zm19.6353-17.5551l.7702-1.6281-.1752-.0843-.7704,1.6294.1755.083Zm-12.3642,25.6888l-.7702,1.6294.1752.0814.7702-1.6286-.1752-.0822Zm19.0266-6.6624l1.6286.7696.0814-.1747-1.6286-.7702-.0814.1752Zm-25.6891-12.3647l-1.6273-.7702-.0843.1752,1.6286.771.083-.176Zm3.3428-4.4423l-1.2091-1.3353-.1436.1291,1.2107,1.3345.142-.1283Zm19.0019,21.2515l1.2091,1.3335.1449-.1286-1.212-1.334-.142.1291Zm1.1261-20.1259l1.3348-1.2118-.1296-.1423-1.3348,1.2083.1296.1457Zm-21.2541,18.999l-1.3335,1.2118.1299.1423,1.3345-1.2091-.131-.1449Zm11.2323-23.7414l.1905.0111.0898-1.8014-.1921-.009-.0883,1.7993Zm-1.4879,30.2742l.1918.009.0883-1.8006-.1918-.0103-.0883,1.802Zm15.1137-15.2372l1.8012.0896.0084-.1926-1.7985-.0883-.0111.1913Zm-28.462-1.5901l-1.7999-.0891-.0111.1926,1.8028.0898.0082-.1934Z"/><polygon points="20.2448 36.1509 13.541 36.1509 17.2801 42.6586 13.541 49.1667 23.4622 49.1667 23.4622 48.8152 20.2448 46.4842 20.2448 36.1509"/><polygon points="86.7766 36.1509 80.0715 36.1509 80.0715 46.4842 76.8375 48.8297 76.8375 49.1667 86.7766 49.1667 83.0375 42.6586 86.7766 36.1509"/><path d="m79.4682,33.8673h-16.5478c-2.2457-4.7983-7.1138-8.124-12.7615-8.124s-10.5175,3.3257-12.7618,8.124h-16.5657v12.2185h16.7106c2.305,4.6357,7.0874,7.8239,12.6169,7.8239s10.3117-3.1881,12.6153-7.8239h16.694v-12.2185Zm-17.9693,12.2185c-2.2098,3.9897-6.4638,6.6977-11.3401,6.6977s-9.1305-2.7081-11.3401-6.6977c-1.0297-1.8583-1.6165-3.991-1.6165-6.2593,0-2.1469.5288-4.173,1.4563-5.9592,2.16-4.1525,6.5038-6.9986,11.5003-6.9986s9.34,2.8461,11.5016,6.9986c.9275,1.7862,1.4547,3.8123,1.4547,5.9592,0,2.2683-.5865,4.401-1.6162,6.2593m-36.098-9.0665h1.6123v.522h-1.0321v1.665h.8368v.4972h-.8368v1.8452h1.0421v.503h-1.6223v-5.0323Zm2.272,4.6968c-.1834-.2608-.2851-.6192-.3056-1.0747l.5135-.1676c.0171.323.0693.5839.1565.7828.0875.1987.2319.298.434.298.1507,0,.2643-.0506.3415-.1523.0769-.1012.1157-.2474.1157-.4379,0-.2071-.0361-.3789-.108-.5156-.0719-.1367-.1865-.2877-.3438-.4537l-.6985-.7454c-.1404-.1491-.2421-.3096-.3054-.4814-.0635-.1718-.0951-.3821-.0951-.6305,0-.3686.0872-.6545.2619-.8576.1747-.2026.4124-.3043.7138-.3043.3286,0,.5768.1057.7443.317.1678.211.2687.5383.303.9815l-.493.1615c-.0171-.294-.064-.5206-.141-.6803-.0772-.1594-.215-.239-.4134-.239-.1473,0-.2603.0466-.3388.1396-.079.0933-.1183.2311-.1183.4131,0,.1491.0206.2745.0617.376.0411.1014.1112.2039.2105.3075l.7035.7457c.1815.1947.3262.4058.434.6334.1078.2279.1618.4869.1618.7768,0,.3686-.0925.6605-.2774.8761-.1847.2153-.4245.3228-.7188.3228-.3491,0-.6155-.1304-.7984-.3913m2.7033-4.1749h-.7035v-.522h1.9666v.522h-.6829v4.5103h-.5802v-4.5103Zm1.5917,3.7712h.5494v.7393h-.5494v-.7393Zm35.1036.4938l1.0579-1.9943c.0511-.0993.0854-.1615.1028-.1863.1196-.2321.2068-.4247.2616-.5778.0548-.1531.0822-.3375.0822-.5531,0-.24-.0327-.4245-.0975-.5528-.0651-.1283-.1713-.1926-.3183-.1926-.3286,0-.493.3085-.493.9256v.1678h-.5494v-.1742c0-.4719.0804-.8345.2414-1.0871.1607-.2527.4192-.3792.7752-.3792.3286,0,.5768.113.7446.3388.1676.2258.2514.5457.2514.9599,0,.2029-.0195.3842-.059.5436-.0393.1594-.0862.2972-.141.4131-.0551.1159-.1404.2817-.2569.4972l-.9551,1.7643h1.3148v.5591h-1.9616v-.4722Zm2.8011.1241c-.1728-.269-.2595-.6292-.2595-1.0808v-2.1685c0-.4595.0848-.821.2543-1.084s.429-.3947.7778-.3947c.346,0,.6036.1317.7731.3947s.254.6245.254,1.084v2.1685c0,.4556-.0856.8168-.2566,1.0842-.1713.2669-.4282.4005-.7704.4005s-.5999-.1346-.7725-.4039m1.245-1.0747v-2.1806c0-.2856-.0332-.5125-.0999-.6803-.0669-.1678-.191-.2516-.3726-.2516-.1813,0-.3062.0838-.3747.2516s-.1028.3947-.1028.6803v2.1806c0,.6213.1591.9319.4774.9319.3151,0,.4724-.3106.4724-.9319m1.7306-2.7397c-.0071.0124-.1107.0414-.3106.0869-.2005.0456-.3383.0767-.4134.0933v-.5033c.4174-.1201.7032-.3025.8574-.5467h.416v5.0323h-.5494v-4.1625Zm1.7071,3.7618c-.1694-.3043-.2543-.703-.2543-1.196v-1.696c0-.5425.0788-.9754.2363-1.2984.1573-.323.4192-.4848.7857-.4848.3214,0,.5699.1057.7443.317.1744.2113.2651.5138.2722.9072l.005.0746h-.5544c0-.2569-.0343-.4463-.1028-.5686-.0685-.122-.19-.1831-.3644-.1831-.3151,0-.4724.3583-.4724,1.0747v.7641c.0545-.1075.1341-.1926.2387-.2545.1043-.0622.2266-.0933.367-.0933.3251,0,.5562.1254.693.3757.137.2508.2058.61.2058,1.0779,0,.493-.0841.8895-.2516,1.1899-.1678.3004-.4279.4503-.7804.4503-.3425,0-.5984-.1523-.7678-.4566m1.1348-.351c.0735-.1699.1104-.3934.1104-.6711,0-.2524-.0087-.4535-.0258-.6026s-.0601-.2711-.1283-.3665c-.0685-.0951-.1763-.1428-.3233-.1428-.1062,0-.1995.0332-.2801.0993-.0804.0664-.1444.147-.1923.2421v.752c0,.2859.0366.5146.1101.6864.0738.1718.1942.2577.3623.2577.171,0,.2933-.0846.367-.2545"/></g><path d="m27.0297,49.1132l4.8682-1.9697.2271.5615-2.1035.8511.418,1.0322,2.1035-.8511.2266.5615-4.8682,1.9697-.2266-.5615,2.2773-.9214-.4175-1.0322-2.2778.9214-.2271-.5615Z" fill="#1d1d1b"/><path d="m28.9726,53.3534c-.124-.209-.1704-.4004-.1392-.5723.0317-.1709.1294-.3369.2944-.4941.165-.1582.3877-.3193.6665-.4844l.7363-.4355c.2866-.1699.5381-.2881.7554-.3545.2168-.0654.4077-.0698.5723-.0122.165.0581.3076.189.4277.3921.1328.2246.1748.4229.126.5947s-.168.3359-.3584.4961c-.1899.1572-.4316.3232-.7256.4971l-.2622.1553-.6226-1.0508-.6475.3828c-.1299.0771-.2295.1494-.2998.2188-.0703.0674-.1113.1357-.124.2041-.0127.0664.001.1357.0439.207.043.0732.0977.1172.1641.1299.0645.0137.1416.0029.2295-.0303.0889-.0332.1865-.082.2949-.1455l.1948-.1162.2832.4785-.1226.0732c-.3237.1914-.6118.2861-.8652.2822-.2529-.0039-.46-.1426-.6221-.416Zm1.7939-1.46l.3359.5674.2905-.1719c.1338-.0791.2427-.1523.3267-.2188.083-.0664.1377-.1328.1611-.1992.0239-.0645.0107-.1396-.0381-.2217-.0479-.0811-.1055-.1289-.1748-.1436-.0688-.0137-.1611.001-.2764.0479-.1152.0488-.2656.127-.4521.2373l-.1729.1025Z" fill="#1d1d1b"/><path d="m29.9965,54.8437l3.0356-2.1973.3359.4639-3.0356,2.1973-.3359-.4639Zm3.4868-2.5244l.5884-.4258.3359.4639-.5884.4258-.3359-.4639Z" fill="#1d1d1b"/><path d="m30.7792,55.8866l4.0728-3.3145.3618.4453-4.0728,3.3145-.3618-.4453Z" fill="#1d1d1b"/><path d="m31.6064,56.871l2.7676-2.5254.3867.4238-2.7676,2.5254-.3867-.4238Zm3.1792-2.9014l.5361-.4902.3867.4238-.5361.4902-.3867-.4238Z" fill="#1d1d1b"/><path d="m32.4862,59.411c-.1377-.125-.2461-.2559-.3242-.3916-.0796-.1357-.1152-.2715-.1104-.4062.0073-.1338.0679-.2637.1816-.3877.0811-.0898.168-.1533.2603-.1914.0923-.0391.1865-.0596.2827-.0635.0947-.0039.1846.0029.269.0215-.0498-.0928-.0684-.1836-.0547-.2734.0127-.0898.0483-.165.1035-.2256.0933-.1025.1958-.1699.3076-.2021.1118-.0332.2461-.0566.4048-.0703-.0151-.1602.0122-.3213.0811-.4873.0674-.166.2021-.3584.4028-.5791.1978-.2178.3882-.377.5693-.4775s.354-.1455.519-.1318c.1646.0117.3174.082.457.209.125.1133.2012.2295.2295.3496.0278.1191.0166.248-.0371.3867.0366-.0137.1118-.0254.2271-.0342.1147-.0098.229-.001.3442.0283l.0928.0234-.1934.4277c-.04-.0244-.0996-.0508-.1782-.0791-.0796-.0273-.1528-.0518-.2236-.0713-.0708-.0205-.1201-.0293-.1475-.0254-.0317.0713-.0864.165-.165.2803-.0781.1152-.1533.2139-.2261.293-.1719.1895-.3433.3369-.5142.4443-.1704.1084-.3384.1611-.5029.1602-.166-.002-.3291-.0752-.4902-.2227-.0342-.0312-.0688-.0674-.1025-.1104-.0337-.042-.0615-.083-.085-.1211-.0415.0137-.0889.0322-.1411.0557-.0518.0225-.0938.0518-.126.0869s-.042.0771-.0303.125c.0112.0488.0469.1064.1074.1729l.3213.3633c.1621.1826.2354.3691.2217.5605-.0151.1914-.1162.3906-.3057.5977-.1367.1504-.2812.251-.4346.3018-.1523.0518-.3105.0488-.4756-.0068-.1636-.0557-.335-.165-.5146-.3291Zm.3975-.374c.1514.1377.2812.2168.3921.2383.1113.0225.21-.0146.2974-.1113.0522-.0566.0869-.1133.1045-.167.0181-.0537.0146-.1123-.0103-.1758-.0244-.0635-.0742-.1377-.1494-.2246l-.3267-.3662c-.0615.0088-.1206.0186-.1787.0293-.0586.0117-.1143.0293-.166.0547-.0532.0254-.0986.0615-.1392.1064-.0757.083-.104.1709-.0835.2656.021.0947.1074.2109.2598.3506Zm1.4946-1.6816c.0615.0557.1216.0859.1816.0908.0605.0059.1245-.0098.1899-.0459.0669-.0361.1382-.0898.2148-.1592.0767-.0713.1582-.1553.2456-.251.0869-.0957.1636-.1855.228-.2695.0645-.085.1138-.1621.147-.2344.0342-.0713.0464-.1377.0366-.1992-.0093-.0615-.0449-.1191-.1055-.1748-.0576-.0518-.1196-.082-.1836-.0879-.0645-.0059-.1299.0088-.1963.0439-.0664.0361-.1396.0898-.2188.1611-.0791.0703-.1655.1582-.2583.2607-.0786.0859-.1494.1689-.2109.25s-.1064.1582-.1362.2305c-.0303.0732-.041.1416-.0332.207.0083.0654.0405.125.0991.1777Z" fill="#1d1d1b"/><path d="m35.5483,60.4579c-.1982-.1406-.3184-.2959-.3594-.4658-.0415-.1689-.019-.3604.0669-.5723.0869-.2109.2241-.4492.4116-.7129l.4951-.6982c.1924-.2715.374-.4824.5454-.6309.1714-.1494.3438-.2305.5181-.2451.1743-.0137.3584.0479.5498.1836.2129.1514.3325.3154.3574.4922.0254.1768-.0161.376-.1255.5986-.1089.2217-.2627.4717-.46.75l-.1763.249-.9961-.707-.4351.6133c-.0874.124-.1489.2314-.1855.3223-.0361.0908-.0459.1699-.0303.2373.0161.0664.0576.124.125.1719.0693.0488.1372.0664.2021.0518.0659-.0146.1318-.0557.1982-.1221.0674-.0654.1362-.1504.209-.2529l.1309-.1846.4541.3213-.0825.1162c-.2173.3066-.4414.5107-.6748.6104-.2324.0996-.4785.0576-.7383-.126Zm1.0444-2.0654l.5371.3818.1953-.2754c.0898-.127.1592-.2373.21-.332.0488-.0947.0713-.1777.0654-.2471-.0039-.0703-.0469-.1328-.125-.1885-.0762-.0537-.1484-.0732-.2178-.0596-.0688.0156-.147.0674-.2329.1572s-.1909.2236-.3159.3994l-.1162.1641Z" fill="#1d1d1b"/><path d="m38.4618,62.1962l2.2124-4.7627.9033.4199c.1777.082.3223.1777.4312.2861.1089.1074.1855.2314.2271.3701s.0488.293.021.4639c-.0283.1699-.0894.3564-.1836.5605-.0913.1963-.1904.3564-.2969.4805-.1074.124-.2217.208-.3428.2529-.1201.0439-.2515.0469-.3911.0107.1382.1162.2319.249.2803.3984.0493.1494.0601.3154.0312.5s-.0962.3906-.2017.6182c-.0947.2041-.2007.3809-.3179.5312-.1167.1504-.2437.2656-.3813.3447s-.2852.1221-.4424.127c-.1587.0049-.3252-.0332-.499-.1143l-1.0498-.4873Zm.77-.2217l.3691.1719c.2461.1152.4424.1211.5903.0205.1475-.1006.292-.3057.4355-.6162.0928-.1992.1504-.377.168-.5332.02-.1553-.0029-.2891-.0669-.4023s-.1758-.207-.3379-.2822l-.3252-.1514-.833,1.793Zm1.0679-2.2988l.3252.1514c.1562.0723.29.1025.4023.0898.1104-.0127.2124-.0684.3022-.1699.0908-.1016.1802-.2451.2681-.4336.1016-.2197.147-.3916.1367-.5146-.0088-.123-.0664-.2256-.1714-.3047-.1035-.0801-.25-.1641-.4385-.25l-.1309-.0615-.6938,1.4932Z" fill="#1d1d1b"/><path d="m41.3861,63.4569l1.249-3.5332.54.1914-1.249,3.5332-.54-.1914Zm1.4351-4.0586l.2422-.6836.54.1904-.2422.6846-.54-.1914Z" fill="#1d1d1b"/><path d="m43.558,64.1972c-.2344-.0635-.4009-.167-.4985-.3115-.0972-.1445-.1436-.332-.1357-.5605.0073-.2285.0537-.499.1377-.8115l.2217-.8262c.0859-.3223.1831-.582.293-.7812.1089-.1992.2422-.3359.4009-.4092.1582-.0742.3521-.0801.5786-.0186.252.0664.4209.1787.5068.3359.0854.1572.1152.3594.0908.6055-.0264.2461-.0825.5332-.1709.8633l-.0791.2939-1.1807-.3164-.1948.7275c-.0396.1455-.0596.2676-.0615.3652-.0034.0977.0156.1748.0537.2324s.0967.0957.1768.1172c.082.0225.1519.0156.2075-.0205.0571-.0361.105-.0977.1436-.1826.041-.0859.0757-.1895.1084-.3105l.0586-.2188.5381.1436-.0371.1377c-.0972.3633-.2373.6328-.4214.8066-.1841.1748-.4287.2207-.7363.1387Zm.2622-2.2988l.6367.1699.0869-.3252c.0405-.1504.0674-.2783.0811-.3838.0142-.1064.0063-.1914-.0234-.2559-.0283-.0625-.0903-.1074-.1821-.1328-.0908-.0244-.166-.0176-.2251.0215-.0596.0371-.1143.1133-.165.2266-.0483.1152-.1011.2764-.1572.4854l-.0518.1943Z" fill="#1d1d1b"/><path d="m45.3017,64.5517l.6333-3.6924.5645.0967-.0898.5234c.1519-.2061.2905-.3379.4155-.3955.1265-.0576.2456-.0762.3579-.0566.0146.002.0273.0039.04.0068.0117.002.0278.0068.0483.0146l-.1289.7539c-.0386-.0283-.084-.0547-.1362-.0791-.0513-.0244-.1055-.041-.1611-.0508-.0889-.0156-.1733-.0039-.2539.0322-.0806.0371-.1685.1191-.2627.248l-.4624,2.6963-.5645-.0977Z" fill="#1d1d1b"/><path d="m49.8398,65.0673c-.2715-.0039-.4883-.0771-.6484-.2197-.1611-.1426-.2754-.3486-.3452-.6172-.0693-.2695-.1021-.5918-.0967-.9678l.0249-1.7568c.0054-.3848.0435-.7109.1133-.9805.0693-.2686.1904-.4736.3623-.6143.1719-.1396.4092-.208.7129-.2031.2715.0039.4897.0615.6543.1738.1641.1123.2832.2832.354.5107.0723.2275.106.5146.1011.8604l-.0024.1943-.5684-.0078.002-.1621c.0034-.2285-.0068-.415-.0288-.5605-.0234-.1455-.0728-.2539-.1489-.3271-.0752-.0723-.1958-.1094-.3599-.1113-.1787-.0029-.3091.0449-.3906.1436-.0815.0977-.1333.2324-.1562.4023-.022.1709-.0347.3643-.0376.5801l-.0273,1.9453c-.0034.25.0093.46.0371.6289s.0835.2949.1685.3789c.085.083.2056.126.3628.1279s.2798-.041.3657-.1309c.0874-.0898.1489-.2227.1826-.3994.0347-.1768.0547-.3975.0581-.6611l.0054-.3633-.5518-.0068.0073-.5186,1.0977.0146-.0366,2.5996-.3799-.0049-.0503-.6035c-.0605.1934-.1514.3516-.2754.4756-.1226.123-.2915.1836-.5054.1807Z" fill="#1d1d1b"/><path d="m53.4003,64.7909c-.2402.0371-.4346.0098-.583-.084-.1475-.0938-.2637-.2461-.3486-.459-.085-.2109-.1514-.4766-.2012-.7969l-.1289-.8477c-.0508-.3281-.0664-.6064-.0469-.832.0205-.2256.0869-.4043.2031-.5371.1152-.1299.2891-.2139.5225-.25.2578-.0391.457-.0039.5986.1055.1416.1104.25.2822.3262.5176.0752.2363.1387.5215.1914.8594l.0459.3008-1.208.1855.1143.7441c.0225.1494.0527.2686.0898.3584.0381.0918.085.1543.1436.1924.0586.0361.1279.0488.209.0371.085-.0137.1445-.0488.1816-.1045.0361-.0557.0557-.1309.0576-.2256.002-.0938-.0059-.2031-.0254-.3262l-.0342-.2246.5508-.084.0215.1406c.0566.3721.0361.6738-.0615.9082-.0986.2334-.3037.374-.6182.4219Zm-.6855-2.209l.6514-.0996-.0508-.334c-.0234-.1543-.0508-.2822-.0811-.3838-.0303-.1035-.0713-.1768-.123-.2256-.0527-.0449-.126-.0625-.2217-.0479-.0918.0146-.1572.0518-.1973.1094-.04.0596-.0596.1514-.0586.2744.001.125.0176.2949.0508.5078l.0303.1992Z" fill="#1d1d1b"/><path d="m55.6171,64.3378l-1.1191-3.5762.5059-.1582.1064.3398c.0566-.167.1338-.3018.2324-.4053s.2109-.1758.3369-.2148c.1094-.0342.2188-.0322.3252.0078.1084.0391.207.1367.2979.2939.0557-.1904.1348-.3408.2363-.4512.1025-.1113.2217-.1885.3584-.2314.0947-.0293.1904-.0293.2861.0029.0967.0303.1875.0996.2734.207.085.1064.1592.2588.2207.4561l.8789,2.8096-.501.1562-.8643-2.7656c-.0547-.1719-.1152-.2822-.1797-.3281s-.1367-.0557-.2148-.0312c-.0742.0234-.1445.0742-.2109.1514-.0645.0771-.1182.1719-.1582.2832.0059.0176.0107.0342.0156.0498.0049.0166.0107.0352.0176.0557l.8789,2.8096-.501.1562-.8652-2.7656c-.0537-.1729-.1143-.2822-.1787-.3281s-.1367-.0557-.2148-.0312c-.0742.0234-.1445.0732-.208.1504-.0635.0762-.1182.1719-.1611.2842l.9121,2.915-.5059.1582Z" fill="#1d1d1b"/><path d="m60.539,62.5868c-.2207.1025-.4141.1309-.582.082-.168-.0469-.3232-.1602-.4648-.3408-.1416-.1787-.2812-.415-.4189-.708l-.3633-.7754c-.1416-.3008-.2354-.5635-.2793-.7852-.0459-.2217-.0312-.4121.042-.5713.0732-.1582.2168-.2881.4307-.3877.2363-.1113.4375-.1338.6045-.0693.166.0664.3184.2002.459.4043.1387.2041.2812.4609.4258.7705l.1299.2754-1.1064.5195.3193.6807c.0645.1377.127.2441.1885.3193.0625.0771.125.123.1914.1436.0664.0186.1367.0107.2109-.0244.0781-.0361.126-.0859.1455-.1504s.0166-.1416-.0088-.2324-.0645-.1934-.1172-.3066l-.0957-.2051.5039-.2363.0605.1289c.1602.3408.2266.6357.1973.8877-.0273.252-.1855.4453-.4727.5811Zm-1.2822-1.9258l.5967-.2803-.1445-.3066c-.0654-.1406-.127-.2559-.1855-.3457-.0576-.0889-.1182-.1484-.1816-.1787s-.1387-.0254-.2266.0156c-.084.0391-.1367.0938-.1582.1611s-.0137.1602.0215.2793c.0371.1191.1006.2773.1924.4727l.0859.1826Z" fill="#1d1d1b"/><path d="m59.8612,58.0507l-.3535-.6348.501-.2793.3535.6348-.501.2793Zm2.0938,3.7607l-1.8223-3.2734.501-.2793,1.8223,3.2734-.501.2793Z" fill="#1d1d1b"/><path d="m63.1649,61.1298l-2.0547-3.1348.4795-.3145.2021.3096c.0234-.1543.0645-.2998.124-.4365.0596-.1377.1514-.248.2773-.3301.1045-.0684.2061-.0879.3037-.0596.0977.0293.1904.085.2764.168.0859.082.1631.1738.2295.2754l1.6631,2.5391-.4795.3135-1.5527-2.3701c-.0732-.1113-.1445-.1895-.2119-.2334-.0664-.0439-.1426-.0381-.2266.0166-.0527.0352-.0957.0908-.1299.168-.0332.0762-.0596.1582-.0781.2471l1.6572,2.5273-.4795.3145Z" fill="#1d1d1b"/><path d="m66.0224,59.1737c-.1982.1582-.417.2119-.6572.1572s-.4668-.1982-.6807-.4307l.2627-.4355c.1709.1689.3193.2773.4473.3271.127.0508.2422.0352.3457-.0479.0811-.0645.1191-.1416.1172-.2305-.0029-.0898-.042-.1807-.1172-.2754-.0684-.085-.1436-.1475-.2295-.1914-.085-.043-.1895-.0713-.3164-.0869l-.7588-.0986c-.1543-.0215-.3027-.0625-.4463-.125-.1426-.0615-.2832-.1787-.4219-.3516-.123-.1543-.2031-.3066-.2363-.4531-.0332-.1484-.0264-.2871.0225-.418.0498-.1299.1367-.2451.2627-.3457.1924-.1543.3984-.1973.6211-.1279.2217.0684.4248.2041.6094.4053l-.1914.377c-.0928-.0928-.1807-.167-.2627-.2246-.084-.0576-.1611-.0928-.2344-.1035s-.1416.0088-.2061.0605c-.0723.0576-.1064.1328-.1025.2266s.0391.1816.1035.2627c.04.0498.0898.0938.1475.1279.0566.0342.127.0566.209.0684l.8076.1348c.1094.0166.2207.042.3311.0742.1113.0332.2207.083.3301.1514.1094.0674.2139.1641.3145.2891.1318.165.2139.3262.248.4814.0332.1562.0225.3027-.0332.4385-.0566.1367-.1514.2578-.2852.3643Z" fill="#1d1d1b"/><path d="m67.914,57.5048c-.1816.1768-.3623.2666-.542.2686-.1797.0029-.3623-.0615-.5518-.1914-.1885-.1309-.3867-.3037-.5947-.5186l-.5996-.6191c-.2197-.2266-.3896-.4346-.5107-.627-.1221-.1924-.1777-.376-.167-.5527.0117-.1758.1064-.3516.2861-.5254.1621-.1562.3174-.2451.4678-.2676s.3027.0137.458.1074c.1553.0928.3223.2324.5029.4189l.1543.1582-.373.3613-.1592-.1631c-.1133-.1182-.21-.2041-.2891-.2607-.0791-.0557-.1504-.083-.2139-.0811-.0635.001-.126.0312-.1875.0908-.0674.0654-.0996.1338-.0996.2051,0,.0723.0381.1582.1113.2578.0742.0996.1846.2256.332.3779l.8213.8467c.2227.2305.3896.3662.501.4092.1104.043.2129.0195.3047-.0693.0693-.0674.1006-.1357.0957-.2061-.0059-.0703-.0381-.1445-.0986-.2246-.0605-.0811-.1338-.166-.2207-.2559l-.2119-.2188.373-.3613.1797.1855c.1748.1807.3076.3516.3994.5166.0918.1641.127.3232.1045.4766-.0234.1543-.1133.3076-.2725.4619Z" fill="#1d1d1b"/><path d="m69.2011,56.1054l-4.0508-3.3418.3643-.4414,1.46,1.2041c-.0273-.1572-.0332-.3125-.0176-.4668.0146-.1543.0723-.292.1719-.4131.0781-.0938.168-.1416.2695-.1426.1025-.002.207.0244.3135.0781.1074.0537.208.1182.3008.1953l2.3408,1.9307-.3652.4424-2.1855-1.8027c-.1035-.085-.1924-.1387-.2705-.1611-.0771-.0215-.1475.0059-.2109.083-.0439.0527-.0703.1221-.0801.209-.0098.0859-.0088.1768.0039.2705l2.3203,1.9141-.3643.4424Z" fill="#1d1d1b"/><path d="m71.3798,53.3222c-.0654.1025-.1582.1699-.2793.2031s-.252.0371-.3906.0107c-.1406-.0254-.2725-.0781-.3955-.1572-.1973-.126-.3467-.2588-.4463-.3994-.0996-.1396-.166-.2871-.1982-.4404-.0322-.1543-.0439-.3164-.0332-.4863.0107-.1689.0273-.3438.0498-.5234l-.2236-.1436c-.1279-.0811-.2363-.1426-.3281-.1846-.0918-.041-.1699-.0566-.2363-.0459-.0654.0107-.1221.0547-.1699.1299-.043.0664-.0596.1309-.0488.1953s.0439.127.0996.1865c.0557.0615.1289.1221.2197.1797l.1592.1016-.3281.4639c-.3457-.2295-.5605-.46-.6455-.6914-.0859-.2334-.043-.4814.126-.7461.166-.2588.3691-.3882.6094-.3872.2393.0015.5225.105.8467.312l1.4424.9209c.0986.0635.1943.1211.2871.1748.0947.0537.1836.1025.2666.1445s.1611.083.2334.1211l-.2822.4424c-.0635-.0283-.1436-.0645-.2422-.1074-.0977-.043-.1865-.0859-.2617-.126.1045.1094.1826.2412.2354.3955s.0312.3066-.0654.457Zm-.3818-.5107c.0312-.0479.043-.1045.0381-.167-.0059-.0625-.0195-.124-.04-.1836-.0205-.0605-.04-.1045-.0576-.1328l-.8965-.5723c.0039.1074.0088.2109.0176.3096s.0254.1914.0498.2773c.0254.085.0635.166.1172.2393.0518.0742.125.1406.2148.1982.127.0811.2402.126.3389.1338.0967.0068.1699-.0273.2178-.1025Z" fill="#1d1d1b"/><path d="m72.5194,51.2831l-2.8857-1.4619-.167.3296-.457-.231.167-.3301-.1729-.0879c-.208-.1055-.3799-.209-.5146-.3115-.1357-.1021-.2197-.2168-.2578-.3438-.0371-.127-.0127-.2764.0742-.4487.0322-.064.0635-.1187.0947-.1655.0312-.0464.0693-.0957.1152-.1484l.4512.2285c-.0215.0244-.0449.0527-.0693.085-.0225.0322-.043.0625-.0576.0913-.0498.0991-.042.1821.0234.2485.0654.0674.1641.1343.2949.2007l.2773.1406.2129-.4204.457.2305-.2129.4209,2.8857,1.4619-.2588.5117Z" fill="#1d1d1b"/><path d="m73.5888,49.0653c-.0605.1484-.1445.2549-.249.3184-.1045.0625-.2285.0898-.3682.0806-.1416-.0093-.2959-.0483-.4648-.1167l-2.2627-.9238-.123.3027-.4258-.1738.123-.3027-1.0146-.4141.2168-.5303,1.0146.4141.1885-.4609.4258.1738-.1885.4609,2.2217.9062c.1357.0552.2402.0767.3125.0635.0732-.0117.1309-.0703.1729-.1719.0107-.0273.0215-.0586.0303-.0947.0117-.0361.0205-.0723.0303-.1064l.4746.1934c-.0146.0713-.0303.1357-.0488.1948-.0156.0581-.0381.1206-.0654.187Z" fill="#1d1d1b"/><g clip-path="url(#clippath-2)"><path d="m38.9472,24.9618c.1401.1455.2485.2515.3262.3174.0771.0659.146.1123.2061.1396.0596.0269.1157.0425.1675.0469.0518.0029.1118-.0059.1802-.0283.0679-.022.1636-.0669.2856-.1367l.1777.1855-1.5835,1.5166-.1777-.1855c.105-.168.165-.2998.1787-.396.0151-.0947-.0098-.1973-.0723-.3066-.063-.1084-.1948-.2671-.395-.4761l-1.5166-1.583-2.1011,2.0122,1.5166,1.583c.1621.1689.2856.2866.3716.354.0864.0664.1641.1108.2339.1304s.1455.02.2261.002c.0806-.019.1938-.0688.3379-.1509l.1777.1855-1.5908,1.5239-.1777-.1855c.1177-.1899.1797-.335.1851-.4341.0063-.0996-.0264-.2031-.0967-.3096s-.1953-.252-.3735-.4385l-3.1309-3.2686c-.1665-.1738-.2944-.2949-.3818-.3618-.0894-.0674-.1689-.1089-.2402-.126-.0708-.0151-.144-.0146-.2168.0049-.0732.0195-.1831.0688-.3306.1465l-.1772-.1846,1.5908-1.5239.1772.1846c-.0845.1338-.1377.2388-.1602.313-.0229.0742-.0288.147-.0181.2158.0107.0698.0493.1528.1147.249.0659.0962.1826.2314.3486.4053l1.2812,1.3379,2.1011-2.0122-1.2812-1.3379c-.21-.2197-.3643-.3589-.4634-.4194-.0986-.0596-.1929-.0864-.2842-.0815-.0918.0054-.231.0586-.4185.1611l-.1772-.1846,1.5835-1.5166.1772.1846c-.1074.1704-.168.3047-.1807.4014-.0137.0972.0117.1997.0762.3071.0645.1069.1953.2642.3936.4712l3.1309,3.2686Z" fill="#1d1d1b"/><path d="m47.3568,22.5668l.0015-.2563c.2173-.0547.3623-.1157.436-.1831.0732-.0679.1216-.1646.145-.2896.0239-.1255.0361-.3174.0371-.5757l.0259-4.5254c.001-.2407-.0068-.416-.0234-.5259-.0171-.1104-.0449-.1958-.0845-.2568-.04-.0615-.0933-.1104-.1587-.1475-.0659-.0371-.1792-.0786-.3398-.125l.0015-.2563,2.8623.0161c.5547.0029.999.0649,1.3359.1851.3359.1206.585.2974.748.5303.1621.2329.2432.5327.2412.8989-.002.3037-.0625.5664-.1807.7891-.1182.2222-.2715.4067-.4609.5518-.1895.1455-.4326.2803-.7285.4043l-.001.0469c.4727.146.8311.3687,1.0732.668.2432.2998.3633.6553.3604,1.0664-.002.4746-.1104.8608-.3223,1.1597-.2129.2993-.5098.5146-.8906.6465-.3809.1323-.8423.1968-1.3823.1938l-2.6953-.0151Zm1.5938-.4883c.2549.0259.5391.0396.8525.0415.457.0024.8125-.0532,1.0664-.167.2534-.1133.437-.2827.5513-.5063.1152-.2246.1729-.5059.1748-.8442s-.0576-.6177-.1807-.8379c-.123-.2207-.3125-.3853-.5693-.4951-.2583-.1094-.6138-.1655-1.0669-.168l-.8115-.0049-.0166,2.9819Zm.9355-3.437c.5303.0029.936-.1226,1.2178-.3779.2827-.2549.4253-.626.4282-1.1143.001-.2407-.0361-.4409-.1152-.6001-.0771-.1592-.1846-.2861-.3218-.3809-.1372-.0952-.2998-.1636-.4878-.2046-.1885-.041-.3926-.0625-.6123-.0635-.1328-.001-.3066.0015-.5234.0073-.2158.0059-.3779.0117-.4863.0181l-.0151,2.7104.916.0054Z" fill="#1d1d1b"/><path d="m63.6288,28.9389l-.3926-.1714.041-.6226c-.2812-.0239-.542-.0879-.7803-.1924-.2393-.1045-.4785-.2632-.7178-.4756-.6611-.5854-.915-1.2998-.7646-2.1445.1514-.8438.7061-1.8057,1.6631-2.8862.5967-.6729,1.2109-1.1831,1.8447-1.5298.6328-.3462,1.2422-.5049,1.8262-.4756.584.0298,1.1074.2495,1.5693.6587.2432.2153.4619.439.6572.6709.1943.2314.3926.5107.5947.8354l-1.1553,1.3032-.3877-.3433c.1816-.3477.2949-.6431.3398-.8882s.0293-.4604-.0439-.6479c-.0742-.187-.2148-.3716-.4209-.5542-.2852-.2529-.6328-.3633-1.043-.3315-.4092.0312-.8643.2104-1.3652.5361s-1.0225.7935-1.5625,1.4033c-.5479.6196-.9668,1.1934-1.2549,1.7222-.2881.5273-.4326.9907-.4307,1.3896,0,.3979.1455.7256.4355.9829.3076.2725.6084.394.9023.3633.292-.0312.5889-.2158.8877-.5537l.252-.2842c.252-.2847.4219-.501.5088-.6494.0879-.1484.1299-.2847.1299-.4097-.001-.125-.0547-.2734-.1592-.4448l.2061-.2324,1.582,1.4019-.2061.2324c-.127-.0459-.2363-.0649-.3262-.0566-.0908.0063-.1807.0356-.2695.0859-.0889.0508-.1846.1255-.2871.2236-.1035.0977-.2422.2441-.416.4404l-1.457,1.644Z" fill="#1d1d1b"/><path d="m46.1298,38.0549l.5067.0835-.0843,2.2781c-.5098.2954-.3583-.571-.3583-.571-1.6025.3367-1.1844-1.265-1.1844-1.265-2.2704-.4216-.4181-2.4443-.4181-2.4443-.7119-1.2484.8663-1.3691.8663-1.3691-.1697-1.1809,1.5156-1.3485,1.5156-1.3485-.0827-1.9413,1.9392-1.1807,1.9392-1.1807.6764-1.9395,2.1932,0,2.1932,0,2.2789-1.4349,2.3587,1.7701,2.3587,1.7701,3.0366-.5046,1.5198,1.8557,1.5198,1.8557l-.1887.225h-8.6657v1.9661Zm5.5692-4.9256c.2084.0843.41.0698.4527-.0358.043-.1028-.0909-.2558-.2993-.3409-.2084-.0827-.4113-.0653-.4542.0379-.04.1009.0925.2561.3009.3388m-1.2808-.258c.3133.1275.6184.1022.679-.0524.0648-.156-.1365-.3852-.4498-.5114-.3149-.127-.6197-.1014-.6806.0545-.0606.1552.1381.3836.4513.5093"/><rect x="46.6963" y="36.6442" width="7.7143" height=".6806"/><polygon points="54.4106 47.3312 46.6964 47.3312 46.6524 48.0552 54.365 48.0552 54.4106 47.3312"/><rect x="46.9476" y="45.834" width="7.2566" height=".9061"/><rect x="46.9476" y="38.0141" width="1.7074" height="8.726"/><rect x="49.0347" y="38.0141" width="2.4017" height="8.726"/><rect x="51.8171" y="38.0141" width="1.9601" height="8.726"/><rect x="46.9561" y="38.0143" width="7.2482" height=".9765"/><path d="m54.4079,39.8496l.0319.967c.1905-.0485,1.0186-.123,1.3208.113.0482.0366.2084.1607.2097.5826-.0013.0248-.0703,2.1131-.0801,2.423-.127.1014-.6334.2809-1.4505.1926l.0414,1.0089c1.8165.2021,2.3105-.679,2.3629-.7791l.0495-.1014.0885-2.7315v-.0076c0-.7617-.3299-1.1794-.6073-1.3925-.7441-.5723-1.8425-.3093-1.9669-.2748"/></g></g></svg>